<svg xmlns="http://www.w3.org/2000/svg" xmlns:xlink="http://www.w3.org/1999/xlink" xmlns:sketch="http://www.bohemiancoding.com/sketch/ns" viewBox="0 0 30 37.5" version="1.1" x="0px" y="0px"><title>device_020-responsive-smartphone-screen-mobile-tablet-display</title><desc>Created with Sketch.</desc><g stroke="none" stroke-width="1" fill="none" fill-rule="evenodd" sketch:type="MSPage"><g sketch:type="MSArtboardGroup" transform="translate(-450.000000, -90.000000)" fill="#000000"><g sketch:type="MSLayerGroup" transform="translate(450.000000, 93.000000)"><path d="M24,2 L24,1.49343323 C24,0.674923137 23.3247272,0 22.4917359,0 L1.50826408,0 C0.66865487,0 0,0.668632833 0,1.49343323 L0,17.5065668 C0,18.3250769 0.675272828,19 1.50826408,19 L9.75,19 L9.04823208,21.8070717 C9.02159424,21.9136231 8.9140625,22 8.80092049,22 L7.50468445,22 C7.22595492,22 7,22.2319336 7,22.5 C7,22.7761424 7.21990657,23 7.49826741,23 L13,23 L13,22 L10.0399933,22 L10.7899933,19 L13,19 L13,18 L1.50989443,18 C1.22828751,18 1,17.7733849 1,17.4917959 L1,15 L13,15 L13,14 L1,14 L1,1.5082041 C1,1.22753073 1.22538441,1 1.50989443,1 L22.4901056,1 C22.7717125,1 23,1.22661515 23,1.5082041 L23,2 L24,2 Z M12,17.5 C12.5522847,17.5 13,17.0522847 13,16.5 C13,15.9477153 12.5522847,15.5 12,15.5 C11.4477153,15.5 11,15.9477153 11,16.5 C11,17.0522847 11.4477153,17.5 12,17.5 Z" sketch:type="MSShapeGroup"/><path d="M28,7 L28,4.50540161 C28,3.66452163 27.3260806,3 26.4947588,3 L15.5052412,3 C14.6671298,3 14,3.67399126 14,4.50540161 L14,22.4945984 C14,23.3354784 14.6739194,24 15.5052412,24 L19,24 L19,23 L15.4982674,23 C15.2230819,23 15,22.7752285 15,22.5038321 L15,20 L19,20 L19,19 L15,19 L15,6 L27,6 L27,7 L28,7 Z M15,4.4961679 C15,4.22214193 15.2199066,4 15.4982674,4 L26.5017326,4 C26.7769181,4 27,4.2247715 27,4.4961679 L27,5 L15,5 L15,4.4961679 Z" sketch:type="MSShapeGroup"/><path d="M21.5052412,8 L28.4947588,8 C29.3260806,8 30,8.66452163 30,9.50540161 L30,23.4945984 C30,24.3260087 29.3328702,25 28.4947588,25 L21.5052412,25 C20.6739194,25 20,24.3354784 20,23.4945984 L20,9.50540161 C20,8.67399126 20.6671298,8 21.5052412,8 Z M21,20 L29,20 L29,11 L21,11 L21,20 Z M21,9.4961679 C21,9.22214193 21.2199066,9 21.4982674,9 L28.5017326,9 C28.7769181,9 29,9.2247715 29,9.4961679 L29,10 L21,10 L21,9.4961679 Z M21,23.5038321 C21,23.7752285 21.2230819,24 21.4982674,24 L28.5017326,24 C28.7800934,24 29,23.7778581 29,23.5038321 L29,21 L21,21 L21,23.5038321 Z" sketch:type="MSShapeGroup"/><circle sketch:type="MSShapeGroup" cx="25" cy="22.5" r="1"/></g></g></g><text x="0" y="45" fill="#000000" font-size="5px" font-weight="bold" font-family="'Helvetica Neue', Helvetica, Arial-Unicode, Arial, Sans-serif">Created by Pham Thi Dieu Linh</text><text x="0" y="50" fill="#000000" font-size="5px" font-weight="bold" font-family="'Helvetica Neue', Helvetica, Arial-Unicode, Arial, Sans-serif">from the Noun Project</text></svg>