<svg xmlns:dc="http://purl.org/dc/elements/1.1/" xmlns:cc="http://creativecommons.org/ns#" xmlns:rdf="http://www.w3.org/1999/02/22-rdf-syntax-ns#" xmlns:svg="http://www.w3.org/2000/svg" xmlns="http://www.w3.org/2000/svg" xmlns:sodipodi="http://sodipodi.sourceforge.net/DTD/sodipodi-0.dtd" xmlns:inkscape="http://www.inkscape.org/namespaces/inkscape" version="1.1" x="0px" y="0px" viewBox="0 0 100 100"><g transform="translate(0,-952.36218)"><path style="text-indent:0;text-transform:none;direction:ltr;block-progression:tb;baseline-shift:baseline;color:#000000;enable-background:accumulate;" d="m 24,969.36216 c -3.8607,0 -7,3.1393 -7,7 l 0,52.00004 c 0,3.8607 3.1393,7 7,7 l 52,0 c 3.8607,0 7,-3.1393 7,-7 l 0,-52.00004 c 0,-3.8607 -3.1393,-7 -7,-7 l -52,0 z m 0,2 52,0 c 2.7873,0 5,2.2127 5,5 l 0,25.00004 -16.0312,0 C 64.4504,993.55651 57.9349,987.36221 50,987.36221 c -7.9349,0 -14.4504,6.1943 -14.9688,13.99999 l -16.0312,0 0,-25.00004 c 0,-2.7873 2.2127,-5 5,-5 z m 46,6 c -2.2092,0 -4,1.7908 -4,4 0,2.2091 1.7908,4 4,4 2.2091,0 4,-1.7909 4,-4 0,-2.2092 -1.7909,-4 -4,-4 z m -20,12.00005 c 7.1916,0 13,5.8085 13,12.99999 0,7.1915 -5.8084,13 -13,13 -7.1916,0 -13,-5.8085 -13,-13 0,-7.19149 5.8084,-12.99999 13,-12.99999 z m -31,13.99999 16.0312,0 c 0.5184,7.8057 7.0339,14 14.9688,14 7.9349,0 14.4504,-6.1943 14.9688,-14 l 16.0312,0 0,25 c 0,2.7873 -2.2127,5 -5,5 l -52,0 c -2.7873,0 -5,-2.2127 -5,-5 l 0,-25 z" fill="#000000" fill-opacity="1" stroke="none" marker="none" visibility="visible" display="inline" overflow="visible"/></g></svg>

