<svg xmlns="http://www.w3.org/2000/svg" fill-rule="evenodd" clip-rule="evenodd" image-rendering="optimizeQuality" shape-rendering="geometricPrecision" text-rendering="geometricPrecision" viewBox="0 0 9144 9144">
  <path fill="#ebebeb" d="M0 0h9144v9144H0z"/>
  <path fill="#011627" fill-rule="nonzero" d="M3897 3810h917c47 0 84 38 84 85v106c205-203 345-201 725-196 47 0 101 1 201 1 252 0 481 104 647 271 166 168 270 399 270 651v1876c0 47-38 85-85 85h-917c-47 0-85-38-85-85V4972c0-104-42-199-111-267-68-69-163-111-267-111-97 0-186 36-254 95-66 59-112 140-124 231v1684c0 47-37 85-84 85h-917c-47 0-85-38-85-85V3895c0-47 38-85 85-85zm-1392 0h917c46 0 84 38 84 85v2709c0 47-38 85-84 85h-917c-47 0-85-38-85-85V3895c0-47 38-85 85-85zm832 169h-748v2540h748V3979zm-374-1524c155 0 295 63 396 164 101 102 164 242 164 396 0 155-63 295-164 396s-241 164-396 164-294-63-396-164c-101-101-164-241-164-396 0-154 63-294 164-396 102-101 241-164 396-164zm276 284c-70-71-168-114-276-114s-205 43-276 114-114 168-114 276 43 206 114 276c71 71 168 115 276 115s206-44 276-115c71-70 115-168 115-276s-44-205-115-276zm1490 1240h-748v2540h748V4916c0-3 0-6 1-9 15-137 82-258 180-345 98-86 227-138 366-138 151 0 288 62 387 161s161 236 161 387v1547h747V4728c0-206-84-395-220-532-135-136-322-221-527-221-50 0-130-1-203-2-396-5-488-6-738 299-15 22-40 37-69 37-47 0-85-38-85-85v-245z"/>
</svg>
