<svg xmlns="http://www.w3.org/2000/svg" xmlns:xlink="http://www.w3.org/1999/xlink" version="1.1" x="0px" y="0px" viewBox="0 0 90 112.5" enable-background="new 0 0 90 90" xml:space="preserve"><g><g><path d="M64.786,66.256c-5.669,0-10.592-1.26-14.634-3.744c-14.274-8.93-28.961-10.57-43.661-4.884    c-0.396,0.153-0.842,0.103-1.192-0.139c-0.351-0.24-0.56-0.637-0.56-1.062V40.849c0-0.565,0.369-1.064,0.91-1.23    c2.495-0.765,4.983-1.389,7.396-1.853c2.199-0.423,4.396-0.725,6.529-0.898c1.907-0.151,3.819-0.208,5.683-0.166    c2.127,0.052,4.246,0.236,6.299,0.546c1.979,0.3,3.958,0.723,5.879,1.258c0.001,0,0.002,0.001,0.003,0.001    c1.781,0.499,3.557,1.109,5.281,1.813l0,0c0.569,0.232,1.138,0.461,1.704,0.685c-0.442-1.105-0.665-2.269-0.665-3.485    c0-3.808,2.151-7.059,6.396-9.661c4.041-2.479,8.964-3.736,14.632-3.736c5.663,0,10.584,1.257,14.625,3.736    c3.648,2.241,5.757,4.97,6.271,8.112c0.011,0.069,0.018,0.138,0.018,0.208v2.683l0.107,13.988c0,3.818-2.151,7.066-6.396,9.665    C75.37,64.996,70.45,66.256,64.786,66.256z M23.689,51.714c1.692,0,3.378,0.093,5.057,0.28c7.625,0.849,15.284,3.65,22.763,8.329    c3.622,2.227,8.092,3.357,13.277,3.357c5.181,0,9.647-1.131,13.278-3.362c3.479-2.128,5.167-4.567,5.167-7.46l-0.066-8.72    c-0.656,0.733-1.435,1.431-2.332,2.089c-0.446,0.325-0.925,0.644-1.426,0.948c-0.428,0.262-0.872,0.516-1.324,0.756v8.99h-2.574    v-7.83c-0.933,0.355-1.901,0.66-2.898,0.911v3.604h-2.575v-3.081c-0.987,0.153-2.007,0.261-3.052,0.322v6.982h-2.575v-6.925    c-1.429-0.013-2.816-0.108-4.146-0.282v3.067h-2.575v-3.519c-1.086-0.242-2.14-0.545-3.152-0.905v7.075H51.96v-8.167    c-0.619-0.309-1.226-0.645-1.809-1.004c-0.229-0.139-0.464-0.288-0.685-0.438c-0.169-0.113-0.336-0.228-0.498-0.343v3.647h-2.574    v-5.522c-0.948-0.351-1.909-0.719-2.875-1.1v7.123h-2.574v-8.153c-0.846-0.328-1.704-0.631-2.567-0.908v3.341h-2.575v-4.083    c-1.04-0.267-2.094-0.499-3.152-0.693v7.844h-2.575v-8.244c-1.172-0.148-2.363-0.253-3.561-0.315v4.906H23.94v-4.97    c-0.984,0.002-1.979,0.032-2.976,0.09v8.117h-2.574v-7.905c-1.258,0.134-2.534,0.314-3.815,0.538v4.215H12v-3.709    c-1.542,0.336-3.111,0.738-4.687,1.199v12.776C12.777,52.674,18.262,51.714,23.689,51.714z M59.206,47.854    c1.739,0.318,3.617,0.48,5.58,0.48c0.296,0,0.59-0.003,0.885-0.008c1.894-0.045,3.704-0.247,5.385-0.604c0.001,0,0.001,0,0.001,0    c1.848-0.394,3.591-0.98,5.181-1.743c0.625-0.303,1.24-0.64,1.827-1c0.445-0.271,0.863-0.549,1.249-0.831    c2.206-1.618,3.455-3.385,3.811-5.396v-2.465c-0.418-2.332-2.119-4.429-5.06-6.235c-3.63-2.226-8.098-3.355-13.278-3.355    c-5.186,0-9.656,1.129-13.286,3.356c-3.478,2.132-5.167,4.575-5.167,7.466c0,1.924,0.743,3.625,2.272,5.2    c0.016,0.016,0.031,0.033,0.046,0.05c0.462,0.472,1.003,0.935,1.606,1.378c0.207,0.149,0.426,0.301,0.649,0.452    c0.186,0.125,0.383,0.251,0.586,0.374c0.735,0.453,1.501,0.86,2.284,1.216C55.441,46.94,57.269,47.499,59.206,47.854    L59.206,47.854L59.206,47.854z M64.933,46.662c-3.397,0-6.448-0.55-9.07-1.632c-0.676-0.282-1.328-0.6-1.943-0.946    c-0.173-0.097-0.34-0.195-0.498-0.293c-0.199-0.115-0.395-0.237-0.58-0.364c-2.569-1.721-3.872-3.828-3.872-6.261    c0-2.767,1.666-5.103,4.952-6.943c3.044-1.7,6.749-2.562,11.012-2.562c4.257,0,7.96,0.862,11.004,2.561    c2.819,1.586,4.452,3.537,4.855,5.801c0.014,0.074,0.02,0.15,0.02,0.226v1.819c0,0.076-0.006,0.151-0.02,0.227    c-0.351,1.963-1.619,3.691-3.772,5.136c-0.003,0.002-0.008,0.005-0.012,0.008c-0.337,0.221-0.698,0.439-1.071,0.648    c-2.875,1.607-6.342,2.472-10.302,2.568C65.396,46.659,65.163,46.662,64.933,46.662z M64.933,30.235    c-3.818,0-7.101,0.751-9.756,2.234c-2.444,1.369-3.633,2.906-3.633,4.696c0,1.544,0.895,2.894,2.734,4.125    c0.005,0.003,0.01,0.006,0.013,0.009c0.136,0.093,0.28,0.183,0.427,0.267c0.014,0.008,0.027,0.016,0.04,0.024    c0.134,0.083,0.276,0.166,0.424,0.25c0.529,0.297,1.09,0.571,1.668,0.813c2.305,0.951,5.025,1.435,8.083,1.435    c0.212,0,0.425-0.002,0.642-0.007c3.535-0.087,6.6-0.841,9.105-2.242c0.318-0.179,0.625-0.363,0.911-0.55    c1.504-1.011,2.394-2.136,2.646-3.344V36.37c-0.298-1.43-1.495-2.742-3.559-3.903C72.025,30.987,68.746,30.235,64.933,30.235z     M64.918,43.224c-2.114,0-4.02-0.344-5.663-1.022c-0.422-0.17-0.835-0.371-1.221-0.592c-0.115-0.064-0.227-0.128-0.332-0.193    c-0.107-0.064-0.224-0.137-0.34-0.212c-0.005-0.004-0.011-0.008-0.018-0.012c-1.695-1.144-2.556-2.559-2.556-4.205    c0-1.861,1.093-3.417,3.248-4.623c1.909-1.065,4.223-1.605,6.881-1.605c2.646,0,4.957,0.54,6.868,1.604    c1.838,1.026,2.909,2.321,3.186,3.848c0.014,0.076,0.021,0.152,0.021,0.229v1.094c0,0.077-0.007,0.153-0.021,0.229    c-0.238,1.323-1.08,2.477-2.5,3.431c-0.213,0.142-0.441,0.281-0.681,0.416c-1.801,1.008-3.962,1.548-6.427,1.605    C65.212,43.221,65.063,43.224,64.918,43.224z M58.775,39.052c0.088,0.057,0.174,0.11,0.261,0.162    c0.085,0.052,0.165,0.099,0.25,0.146c0.007,0.004,0.015,0.008,0.021,0.012c0.288,0.165,0.598,0.315,0.921,0.447    c1.339,0.552,2.915,0.831,4.689,0.831c0.117,0,0.238-0.002,0.36-0.007c0.007,0,0.013,0,0.019,0    c2.043-0.046,3.804-0.476,5.235-1.277c0.181-0.102,0.353-0.207,0.508-0.31c0.773-0.52,1.237-1.075,1.377-1.651v-0.831    c-0.169-0.697-0.803-1.356-1.884-1.96c-1.523-0.848-3.413-1.278-5.615-1.278c-2.213,0-4.105,0.43-5.625,1.278    c-1.931,1.08-1.931,2.055-1.931,2.375C57.362,37.262,57.363,38.096,58.775,39.052z M65.257,40.218h-0.186    c-1.043,0-1.987-0.154-2.807-0.458c-0.22-0.084-0.422-0.171-0.613-0.264c-0.005-0.002-0.01-0.005-0.015-0.007    c-0.025-0.012-0.051-0.024-0.078-0.036c-0.066-0.03-0.131-0.065-0.191-0.105c-0.01-0.007-0.021-0.014-0.031-0.02    c-0.101-0.05-0.2-0.097-0.3-0.143l0.015-0.034c-1.078-0.729-1.313-1.609-1.313-2.239c0-0.739,0.33-1.785,1.899-2.57    c0.972-0.48,2.125-0.722,3.435-0.722c1.316,0,2.471,0.243,3.428,0.722c1.061,0.522,1.687,1.231,1.853,2.105    c0.016,0.08,0.022,0.16,0.022,0.241v0.447c0,0.082-0.007,0.163-0.022,0.243c-0.148,0.773-0.647,1.417-1.482,1.914    c-0.121,0.074-0.252,0.144-0.393,0.208c-0.902,0.446-1.975,0.688-3.188,0.718C65.277,40.217,65.267,40.218,65.257,40.218z     M62.778,37.181c0.124,0.06,0.258,0.116,0.395,0.169c0.52,0.193,1.162,0.292,1.898,0.292h0.168    c0.836-0.022,1.546-0.176,2.108-0.458c0.017-0.008,0.032-0.015,0.048-0.022c0.062-0.027,0.101-0.05,0.123-0.064    c0.009-0.006,0.02-0.012,0.029-0.017c0.117-0.069,0.188-0.126,0.231-0.167c-0.064-0.059-0.191-0.153-0.425-0.268    c-0.604-0.302-1.37-0.454-2.283-0.454c-0.911,0-1.681,0.153-2.29,0.453c-0.227,0.114-0.354,0.208-0.42,0.269    c0.043,0.04,0.113,0.094,0.223,0.159c0.038,0.021,0.076,0.044,0.114,0.068C62.727,37.155,62.753,37.168,62.778,37.181z"/></g></g></svg>