<svg xmlns="http://www.w3.org/2000/svg" xmlns:xlink="http://www.w3.org/1999/xlink" version="1.1" x="0px" y="0px" viewBox="0 0 100 125" enable-background="new 0 0 100 100" xml:space="preserve"><g><path d="M23.437,64.784c3.399-3.397,3.399-8.928,0-12.325c-3.397-3.399-8.928-3.399-12.325,0   c-3.399,3.397-3.399,8.929-0.001,12.326C14.508,68.184,20.038,68.183,23.437,64.784z M12.481,53.828   c2.642-2.643,6.941-2.643,9.585,0c2.643,2.644,2.643,6.944,0.001,9.586c-2.644,2.644-6.943,2.644-9.586,0   C9.838,60.771,9.838,56.472,12.481,53.828z"/><path d="M35.216,76.563c-3.399,3.397-3.399,8.929-0.001,12.326c3.397,3.398,8.928,3.397,12.326-0.001   c3.399-3.397,3.399-8.928,0-12.325C44.144,73.164,38.613,73.164,35.216,76.563z M46.172,87.519c-2.644,2.644-6.943,2.644-9.586,0   c-2.644-2.643-2.644-6.942,0-9.586c2.642-2.642,6.941-2.643,9.585,0C48.814,80.576,48.814,84.877,46.172,87.519z"/><path d="M25.958,67.304c0.883-0.883,1.734-1.766,2.567-2.63c0.791-0.818,1.563-1.621,2.333-2.392   c4.579-4.578,8.396-7.246,13.976-7.117c0.129,5.579-2.538,9.397-7.116,13.976c-0.771,0.771-1.574,1.544-2.393,2.335   c-0.863,0.831-1.745,1.683-2.63,2.566c-4.789,4.79-4.79,12.58-0.001,17.367c4.787,4.788,12.579,4.789,17.367-0.001   c4.787-4.786,4.787-12.578,0-17.366c-1.185-1.184-2.568-2.098-4.116-2.715c-0.584-0.231-0.967-0.552-1.077-0.9   c-0.093-0.28-0.014-0.622,0.234-1.014c3.254-5.122,7.203-12.153,8.822-15.683l31.592-13.01c2.43-1,4.439-2.284,5.971-3.813   c0-0.001,0-0.001,0-0.001c4.247-4.246,3.47-8.935,3.435-9.133c-0.052-0.288-0.23-0.538-0.486-0.68   c-0.258-0.142-0.565-0.157-0.836-0.046L58.498,41.502L72.952,6.4c0.111-0.271,0.096-0.578-0.046-0.836   c-0.143-0.257-0.393-0.435-0.68-0.487c-0.198-0.035-4.887-0.811-9.134,3.437c-1.53,1.529-2.813,3.541-3.814,5.972L46.27,46.075   c-3.529,1.619-10.561,5.568-15.683,8.821c-0.392,0.248-0.734,0.327-1.015,0.235c-0.349-0.11-0.668-0.494-0.899-1.078   c-0.617-1.548-1.532-2.931-2.715-4.115c-4.789-4.787-12.581-4.787-17.366-0.001c-4.79,4.789-4.789,12.58-0.001,17.368   C13.378,72.095,21.168,72.094,25.958,67.304z M9.961,51.309c4.032-4.032,10.593-4.032,14.625,0.001   c0.998,0.996,1.767,2.161,2.285,3.464c0.457,1.145,1.185,1.907,2.104,2.205c0.589,0.188,1.527,0.268,2.65-0.445   c5.236-3.325,12.466-7.376,15.786-8.846c0.229-0.103,0.41-0.285,0.504-0.519l13.154-31.946c0.903-2.193,2.047-3.989,3.396-5.338   c2.313-2.313,4.738-2.847,6.164-2.936L55.821,42.914c-0.149,0.361-0.066,0.777,0.211,1.053c0.275,0.278,0.692,0.361,1.053,0.212   l35.962-14.808c-0.093,1.43-0.629,3.861-2.932,6.164c-1.349,1.348-3.144,2.491-5.336,3.395L52.831,52.084   c-0.232,0.096-0.417,0.275-0.519,0.505c-1.47,3.319-5.521,10.55-8.847,15.786c-0.712,1.123-0.633,2.062-0.444,2.649   c0.298,0.919,1.06,1.647,2.205,2.104c1.302,0.519,2.468,1.287,3.464,2.285c4.032,4.032,4.032,10.593,0.001,14.624   c-4.032,4.032-10.594,4.032-14.626,0.001c-4.031-4.032-4.031-10.594,0-14.626c0.876-0.877,1.75-1.719,2.604-2.544   c0.828-0.798,1.639-1.579,2.418-2.358c4.159-4.159,8.175-8.847,7.639-16.341c-0.033-0.48-0.416-0.863-0.896-0.897   c-7.494-0.535-12.182,3.48-16.342,7.64c-0.777,0.778-1.56,1.59-2.357,2.417c-0.825,0.854-1.667,1.729-2.544,2.604   c-4.033,4.032-10.595,4.032-14.626,0.001C5.929,61.902,5.93,55.341,9.961,51.309z"/><circle cx="50.108" cy="49.891" r="1.938"/></g></svg>